<svg class="svg-icon" style="width: 1em; height: 1em;vertical-align: middle;fill: currentColor;overflow: hidden;" viewBox="0 0 1024 1024" version="1.1" xmlns="http://www.w3.org/2000/svg"><path d="M511.931 432.735L381.823 302.627c-12.496-12.496-32.758-12.496-45.254 0L280 359.196l152.735 152.735-130.108 130.108c-12.496 12.496-12.496 32.758 0 45.255l56.569 56.568 152.735-152.735 130.108 130.108c12.496 12.496 32.758 12.496 45.255 0l56.568-56.569-152.735-152.735 130.108-130.108c12.496-12.496 12.496-32.758 0-45.254L664.666 280 511.931 432.735zM512 928C282.25 928 96 741.75 96 512S282.25 96 512 96s416 186.25 416 416-186.25 416-416 416z"  /></svg>